<?xml version="1.0" standalone="no"?>
<svg version="1.0" xmlns="http://www.w3.org/2000/svg"
 width="3993" height="2539" viewBox="0 0 3993.000000 2539.000000"
 preserveAspectRatio="xMidYMid meet">
<g transform="translate(0.000000,2539.000000) scale(0.100000,-0.100000)"
fill="#f6197e" stroke="none">
<path d="M18805 24575 c-152 -29 -235 -62 -275 -110 -8 -9 -43 -37 -79 -63
-99 -69 -115 -86 -208 -224 -111 -166 -124 -207 -131 -404 -7 -229 16 -320
113 -459 23 -33 55 -85 71 -115 16 -30 55 -82 86 -116 73 -77 88 -114 88 -206
0 -174 -27 -295 -91 -413 -26 -48 -52 -121 -79 -225 -47 -180 -60 -215 -106
-292 -47 -77 -69 -146 -100 -307 -21 -115 -33 -153 -79 -246 -36 -73 -69 -165
-100 -274 -25 -91 -68 -212 -95 -270 -60 -133 -64 -144 -95 -326 -33 -183 -45
-217 -134 -359 -85 -135 -119 -170 -164 -170 -30 1 -144 59 -256 131 -125 81
-148 94 -190 109 -95 35 -148 63 -210 113 -35 29 -95 67 -135 86 -39 19 -96
55 -126 80 -30 25 -98 68 -151 95 -52 27 -125 73 -161 103 -37 30 -110 78
-164 106 -53 29 -122 73 -153 98 -31 26 -92 63 -136 83 -44 21 -107 60 -140
88 -33 27 -98 72 -145 100 -121 72 -136 103 -114 248 25 168 20 234 -35 414
-56 184 -62 195 -192 317 -104 97 -144 120 -276 159 -131 37 -228 42 -338 14
-206 -51 -239 -65 -317 -138 -40 -37 -92 -82 -115 -100 -63 -50 -90 -114 -108
-262 -19 -156 -19 -229 0 -364 26 -183 27 -185 131 -298 112 -123 134 -137
278 -178 250 -72 287 -105 355 -317 25 -77 61 -160 94 -218 42 -73 62 -124 87
-217 18 -68 55 -172 82 -233 66 -145 73 -165 108 -321 16 -73 34 -143 41 -156
6 -13 33 -61 60 -108 26 -47 62 -128 79 -181 17 -53 51 -136 76 -185 66 -127
82 -173 115 -316 21 -95 41 -153 78 -226 72 -144 98 -213 132 -346 17 -71 49
-163 78 -225 27 -58 62 -137 77 -176 74 -189 149 -222 414 -180 130 21 173 37
271 99 95 60 148 84 265 121 44 13 108 43 142 65 102 65 135 79 274 110 160
36 214 53 293 93 97 48 176 75 352 118 91 22 209 56 262 76 191 70 286 90 591
123 188 20 235 30 440 93 214 66 413 78 1530 93 773 10 1102 -19 1365 -123
185 -73 251 -87 391 -79 172 8 267 53 316 150 12 23 34 104 49 182 16 80 46
188 69 250 94 247 90 233 115 454 23 201 41 281 100 430 43 110 58 164 80 292
27 163 60 275 114 388 42 89 56 153 85 380 27 206 41 262 99 376 43 86 61 152
82 309 22 167 49 261 102 352 24 43 66 121 93 174 56 110 93 148 177 178 32
12 77 28 100 37 24 9 71 41 105 72 35 31 82 72 106 90 45 36 191 212 217 262
32 61 45 302 24 430 -35 222 -241 436 -532 553 -78 32 -296 31 -384 0 -158
-58 -314 -145 -367 -207 -28 -33 -69 -80 -92 -105 -23 -25 -47 -56 -53 -69
-45 -85 -65 -436 -36 -629 20 -136 14 -204 -29 -298 -27 -60 -202 -241 -291
-302 -33 -23 -76 -58 -95 -78 -19 -20 -62 -58 -95 -83 -33 -25 -89 -73 -125
-107 -36 -33 -87 -79 -115 -100 -63 -50 -320 -282 -360 -325 -16 -18 -50 -46
-75 -63 -93 -63 -478 -435 -505 -487 -32 -63 -56 -179 -65 -325 -13 -205 -30
-345 -42 -345 -6 0 -40 31 -77 69 -59 61 -75 72 -151 100 -151 55 -190 79
-241 155 -26 37 -68 89 -94 117 -44 47 -72 99 -109 200 -9 25 -43 91 -76 145
-39 63 -70 130 -86 184 -36 122 -59 176 -98 228 -42 58 -65 104 -105 207 -17
44 -53 116 -81 160 -45 72 -65 115 -124 278 -10 26 -33 69 -51 95 -52 72 -78
120 -118 214 -19 48 -57 118 -82 155 -56 81 -69 111 -95 215 -11 43 -33 109
-50 147 -16 38 -30 81 -30 94 0 44 88 260 134 327 103 152 131 297 107 548
-18 184 -21 191 -188 452 -49 76 -233 221 -307 241 -127 34 -354 46 -471 24z
m352 -2892 c11 -16 31 -60 46 -99 28 -71 58 -124 134 -234 23 -33 58 -103 78
-155 21 -53 61 -132 90 -176 52 -77 69 -119 130 -324 34 -114 167 -366 234
-443 61 -70 84 -121 106 -232 9 -47 24 -109 32 -139 39 -137 -7 -211 -301
-491 -267 -253 -317 -285 -449 -283 -160 3 -277 40 -380 121 -34 27 -93 66
-132 87 -75 42 -89 52 -216 164 -127 113 -136 136 -104 262 9 32 29 139 46
236 34 203 42 232 96 363 22 52 52 140 67 195 15 55 38 140 52 189 13 48 46
136 73 195 57 123 62 141 91 316 37 231 43 244 201 438 38 47 78 51 106 10z
m3385 -743 c44 -34 51 -69 46 -203 -6 -125 -11 -145 -81 -329 -15 -37 -49
-152 -76 -257 -42 -158 -59 -208 -105 -293 -55 -103 -75 -169 -111 -358 -21
-108 -52 -174 -112 -233 -92 -92 -155 -104 -321 -63 -53 14 -158 36 -232 51
-165 32 -207 51 -286 132 -142 144 -159 313 -45 467 20 28 52 79 72 115 32 59
41 68 85 85 137 53 196 87 267 153 39 37 86 79 102 93 17 14 63 64 102 111 40
48 116 127 170 175 53 49 126 118 162 154 36 36 94 86 129 110 34 25 83 60
108 78 53 37 90 41 126 12z m-6470 -1015 c183 -81 216 -99 293 -154 44 -31
107 -72 140 -90 33 -19 87 -57 120 -86 33 -29 101 -73 152 -98 52 -26 119 -71
153 -101 34 -31 90 -71 125 -91 133 -74 161 -121 153 -252 -15 -236 -150 -382
-438 -473 -69 -22 -152 -51 -185 -65 -108 -44 -187 -25 -268 65 -46 51 -59 79
-101 220 -14 47 -51 130 -82 185 -39 69 -73 150 -110 262 -29 89 -74 202 -99
250 -52 101 -65 158 -65 290 0 189 39 214 212 138z M32939 21705 c-37 -7 -116
-36 -175 -63 -60 -28 -153 -64 -206 -82 -71 -23 -117 -46 -170 -84 -40 -29
-118 -76 -173 -104 -68 -35 -127 -76 -185 -127 -248 -220 -324 -292 -444 -415
-71 -74 -167 -171 -212 -215 -45 -44 -96 -102 -114 -128 -17 -26 -58 -76 -90
-110 -31 -34 -82 -101 -113 -149 -31 -47 -76 -109 -101 -136 -24 -28 -61 -79
-81 -114 -21 -35 -58 -85 -84 -113 -26 -27 -67 -79 -91 -115 -24 -36 -66 -93
-93 -128 -27 -35 -69 -103 -93 -152 -26 -53 -67 -115 -103 -156 -33 -37 -76
-97 -95 -134 -19 -36 -58 -97 -86 -136 -28 -38 -62 -94 -76 -124 -14 -30 -35
-74 -45 -96 -11 -23 -46 -72 -79 -109 -45 -51 -66 -87 -94 -158 -25 -66 -51
-111 -89 -157 -64 -77 -76 -99 -112 -208 -18 -55 -48 -115 -89 -176 -39 -58
-74 -127 -95 -184 -19 -55 -50 -116 -76 -151 -61 -83 -74 -111 -107 -236 -24
-94 -37 -122 -88 -198 -36 -53 -66 -112 -76 -145 -39 -142 -53 -170 -136 -289
-17 -23 -40 -86 -61 -163 -34 -126 -55 -176 -121 -284 -39 -64 -69 -148 -86
-241 -16 -84 -27 -111 -77 -182 -55 -78 -59 -90 -93 -256 -29 -141 -52 -199
-136 -344 -27 -47 -41 -91 -59 -180 -28 -140 -49 -201 -104 -291 -54 -91 -71
-147 -82 -277 -12 -136 -38 -237 -89 -336 -50 -98 -65 -152 -89 -330 -26 -178
-40 -227 -102 -352 -63 -124 -74 -172 -94 -382 -22 -233 -48 -376 -90 -483
-70 -181 -100 -347 -111 -616 -7 -189 -35 -335 -90 -473 -52 -133 -78 -224
-100 -358 -20 -118 -36 -155 -99 -215 -26 -25 -65 -70 -87 -102 -22 -31 -62
-75 -90 -98 -27 -23 -66 -68 -86 -99 -20 -31 -62 -86 -93 -122 -31 -36 -80
-103 -107 -150 -28 -46 -71 -108 -97 -138 -25 -29 -60 -74 -77 -100 -17 -25
-70 -87 -117 -136 -47 -50 -98 -104 -113 -120 -14 -17 -122 -122 -240 -235
-117 -113 -231 -225 -253 -249 -194 -211 -480 -476 -575 -534 -41 -25 -104
-71 -140 -102 -36 -31 -88 -69 -115 -85 -28 -16 -81 -58 -118 -93 -37 -36 -97
-80 -134 -100 -38 -20 -96 -58 -130 -85 -42 -34 -88 -59 -148 -81 -109 -39
-117 -43 -190 -101 -81 -63 -84 -65 -220 -95 -87 -19 -152 -41 -235 -80 -162
-77 -212 -88 -384 -83 -167 4 -164 2 -321 138 -94 82 -109 99 -138 163 -17 40
-50 106 -71 147 -22 41 -50 95 -63 120 -51 99 -57 170 -58 620 0 545 21 724
109 923 40 89 65 189 81 327 19 153 34 201 96 311 56 97 63 119 84 247 20 121
44 189 104 287 27 44 66 127 87 185 25 68 60 137 99 195 33 50 72 122 87 160
16 39 54 105 86 147 32 42 67 96 77 120 10 24 28 66 40 94 12 27 49 79 82 115
36 38 76 96 101 144 22 44 61 107 86 140 26 33 68 92 93 130 25 39 73 99 107
135 34 36 76 86 94 111 17 26 53 65 79 87 26 22 116 106 198 187 146 143 153
148 270 205 141 69 177 78 228 56 74 -30 77 -122 13 -334 -24 -81 -56 -192
-70 -247 -26 -98 -36 -119 -113 -245 -21 -36 -51 -94 -67 -129 -15 -36 -39
-83 -55 -105 -15 -23 -40 -59 -55 -81 -15 -22 -45 -75 -67 -117 -22 -43 -64
-105 -97 -140 -32 -35 -73 -84 -91 -110 -17 -26 -56 -74 -85 -105 -29 -32 -71
-85 -93 -118 -23 -34 -49 -67 -59 -75 -9 -8 -61 -67 -115 -130 -111 -131 -294
-313 -389 -387 -36 -28 -122 -109 -191 -180 -148 -151 -172 -193 -225 -399
-20 -75 -53 -177 -75 -228 -82 -190 -99 -283 -80 -458 32 -296 144 -380 396
-296 44 15 116 32 160 38 212 30 276 51 398 134 44 29 99 55 155 72 108 33
134 46 197 99 56 47 87 64 186 105 38 15 99 50 136 77 37 28 92 63 122 79 30
16 76 54 105 87 28 32 85 81 126 109 41 29 102 78 135 110 33 32 116 110 184
174 69 63 174 168 234 232 60 64 155 166 211 225 55 60 131 139 168 176 51 50
76 87 103 145 19 42 53 104 75 136 22 33 63 106 90 162 27 57 70 127 95 157
59 69 68 87 99 203 28 106 38 127 103 203 54 66 59 79 94 270 25 135 38 177
79 267 91 198 95 219 94 488 0 318 -11 377 -104 580 -26 58 -58 146 -70 195
-31 124 -43 151 -98 209 -26 28 -69 83 -95 123 -29 43 -117 141 -224 248 -172
171 -180 178 -278 225 -55 26 -132 68 -170 92 -86 55 -130 73 -262 104 -57 13
-150 44 -208 69 -196 84 -378 107 -675 86 -203 -15 -276 -30 -409 -88 -57 -24
-140 -53 -185 -64 -182 -44 -208 -53 -303 -106 -54 -31 -137 -70 -185 -89
-114 -43 -140 -57 -216 -116 -36 -27 -95 -65 -133 -84 -42 -21 -87 -54 -116
-85 -27 -28 -79 -72 -118 -97 -38 -25 -108 -79 -154 -121 -251 -229 -433 -406
-498 -488 -40 -51 -89 -104 -108 -119 -19 -14 -52 -50 -72 -78 -20 -28 -65
-81 -98 -117 -34 -36 -77 -92 -95 -124 -18 -31 -57 -85 -87 -118 -30 -33 -74
-99 -98 -146 -25 -47 -72 -120 -105 -161 -37 -45 -70 -100 -86 -141 -14 -37
-48 -100 -76 -139 -27 -40 -69 -117 -93 -171 -23 -54 -65 -129 -93 -166 -59
-81 -72 -106 -102 -198 -28 -87 -59 -148 -114 -229 -24 -35 -51 -85 -61 -112
-60 -162 -79 -207 -120 -274 -53 -89 -79 -162 -100 -287 -18 -108 -30 -144
-80 -243 -56 -110 -73 -169 -101 -330 -30 -178 -44 -233 -94 -380 -78 -230
-89 -326 -101 -890 -13 -634 3 -815 96 -1023 34 -77 69 -191 100 -320 34 -142
47 -177 99 -267 25 -41 57 -115 71 -165 34 -112 55 -154 114 -227 26 -32 68
-95 93 -141 26 -45 70 -104 98 -132 29 -27 72 -80 97 -118 25 -37 49 -67 53
-67 5 0 55 -44 112 -98 56 -54 126 -111 153 -127 28 -16 79 -52 115 -80 76
-61 88 -68 199 -111 46 -18 123 -56 170 -83 105 -60 179 -86 291 -101 128 -16
233 -39 313 -66 272 -94 613 -96 902 -4 143 46 191 56 310 70 137 17 200 36
322 101 85 45 138 65 218 84 123 29 146 40 235 108 36 28 85 59 110 69 122 53
169 79 215 117 28 23 80 58 117 77 37 19 96 60 131 92 35 31 102 80 148 109
46 28 108 72 138 97 29 26 83 66 120 90 81 53 737 709 976 976 61 67 138 153
172 190 73 80 103 136 155 290 51 151 55 171 68 330 8 94 21 173 45 260 18 69
41 159 49 200 20 90 53 154 83 158 16 2 39 -19 100 -94 169 -208 163 -185 173
-759 10 -550 12 -567 106 -726 24 -42 58 -114 75 -159 37 -103 53 -135 94
-185 18 -22 58 -80 90 -130 32 -49 98 -132 147 -184 48 -51 88 -97 88 -102 0
-4 28 -29 63 -55 34 -26 83 -67 110 -91 44 -41 75 -58 260 -142 37 -16 87 -46
110 -64 108 -88 163 -97 613 -98 466 -1 525 9 676 106 47 31 123 69 168 86
108 39 136 54 191 100 26 21 86 61 135 89 49 28 105 66 124 84 19 18 71 61
115 97 108 85 266 230 340 308 33 36 138 144 234 240 106 107 191 203 219 246
24 39 68 95 96 125 29 30 67 78 85 105 19 28 60 77 93 111 33 33 80 95 106
137 49 79 153 205 282 342 42 44 94 103 115 130 22 28 71 82 110 121 120 121
225 240 262 296 19 29 57 76 84 105 31 32 65 86 93 145 25 51 63 118 86 148
23 30 59 93 81 139 24 50 63 109 95 145 30 34 74 100 99 148 25 47 73 119 106
160 34 40 75 96 91 124 15 28 51 77 79 109 28 32 79 102 114 156 35 54 83 122
105 151 23 29 59 87 81 129 21 42 60 102 88 133 52 60 190 293 215 363 39 111
24 236 -40 334 -20 30 -52 86 -71 124 -33 64 -86 127 -239 279 -62 62 -184
136 -225 136 -95 0 -387 -265 -493 -449 -24 -42 -68 -106 -98 -142 -29 -36
-71 -99 -92 -140 -22 -41 -64 -100 -96 -134 -32 -33 -75 -87 -96 -120 -21 -33
-58 -85 -84 -116 -25 -30 -67 -96 -93 -147 -26 -50 -70 -117 -97 -149 -27 -32
-64 -84 -81 -116 -17 -32 -61 -93 -99 -135 -37 -42 -87 -109 -112 -147 -25
-39 -67 -96 -95 -127 -28 -32 -65 -86 -83 -120 -18 -35 -66 -97 -105 -138 -39
-41 -82 -91 -95 -110 -13 -19 -50 -63 -83 -96 -32 -34 -90 -109 -130 -167
-115 -169 -179 -256 -230 -316 -26 -31 -71 -87 -101 -126 -75 -98 -430 -451
-496 -493 -30 -19 -82 -60 -115 -91 -38 -35 -93 -72 -148 -98 -48 -24 -117
-63 -152 -87 -86 -59 -123 -71 -227 -71 -103 0 -112 5 -205 116 -91 109 -120
155 -132 209 -46 212 -43 1033 4 1302 29 169 159 503 240 617 31 46 72 120 90
165 44 112 51 123 110 187 29 30 70 89 90 130 21 41 59 103 85 139 26 36 67
103 90 150 27 54 63 106 101 145 39 41 73 90 104 154 25 51 70 128 99 170 29
42 68 104 85 137 18 34 59 91 92 128 33 37 76 100 96 139 19 40 61 108 93 152
32 44 72 108 90 142 17 34 61 94 96 133 39 43 78 100 99 145 20 41 63 108 95
149 37 45 73 105 94 155 19 45 57 111 84 149 28 37 69 107 93 156 24 48 61
109 84 135 60 67 79 98 114 181 17 41 56 109 87 150 31 41 71 104 89 140 18
36 58 97 89 135 34 43 66 97 82 140 41 108 62 145 124 217 43 50 64 84 80 135
31 93 49 127 114 207 40 50 64 94 86 155 34 93 43 110 101 187 21 27 57 89 79
136 22 47 64 124 94 172 30 47 66 121 81 163 42 117 71 180 124 263 26 41 64
118 85 172 20 53 61 133 91 178 30 47 62 112 74 151 12 38 31 101 43 140 12
41 43 105 71 148 62 95 72 119 98 234 24 103 32 123 89 204 44 62 77 154 109
308 15 72 36 130 75 210 44 89 63 145 99 290 31 127 56 204 84 260 67 133 83
206 113 500 14 131 28 202 80 395 92 340 90 688 -5 918 -20 48 -54 144 -74
214 -21 69 -47 142 -57 162 -26 50 -149 201 -207 256 -27 25 -85 80 -130 122
-97 91 -367 238 -473 257 -80 15 -394 12 -475 -4z m124 -2122 c51 -57 48 -216
-8 -350 -46 -109 -86 -228 -119 -356 -17 -64 -42 -125 -71 -176 -61 -104 -81
-160 -105 -292 -21 -119 -46 -182 -102 -265 -22 -33 -43 -83 -57 -135 -32
-124 -49 -164 -98 -238 -63 -93 -90 -149 -109 -227 -21 -86 -60 -174 -119
-269 -25 -40 -60 -115 -77 -167 -36 -112 -37 -114 -104 -206 -55 -76 -67 -102
-109 -244 -20 -67 -37 -102 -79 -158 -30 -39 -67 -101 -82 -138 -47 -116 -82
-185 -128 -248 -24 -34 -54 -93 -66 -130 -30 -92 -53 -136 -110 -214 -26 -36
-62 -94 -80 -130 -18 -36 -57 -97 -87 -136 -32 -43 -67 -105 -87 -156 -46
-116 -51 -125 -117 -194 -40 -42 -70 -87 -97 -145 -24 -52 -60 -108 -94 -146
-30 -34 -72 -96 -94 -139 -24 -48 -63 -102 -102 -143 -35 -36 -76 -91 -92
-122 -35 -68 -55 -87 -78 -72 -46 28 -36 264 14 350 60 104 83 155 93 211 6
31 16 82 22 112 6 30 41 118 80 195 64 129 71 150 90 264 23 139 30 160 89
258 22 37 50 100 61 138 67 229 80 264 124 331 60 90 72 118 89 220 18 104 41
155 94 217 55 63 66 87 91 183 26 103 42 139 83 194 58 77 75 111 112 232 27
86 50 137 88 195 28 43 70 125 93 183 24 58 67 144 98 193 30 48 69 126 86
173 39 107 43 114 102 195 27 36 65 104 85 151 19 47 53 107 75 134 89 113
101 131 121 198 29 98 53 142 112 208 29 31 73 96 98 145 26 48 68 115 93 148
26 33 64 94 86 136 32 65 53 90 135 163 100 89 127 101 157 69z M10995 18360
c-278 -10 -342 -23 -575 -118 -41 -17 -127 -47 -190 -66 -63 -20 -142 -52
-175 -71 -33 -19 -121 -65 -195 -101 -74 -36 -155 -82 -180 -103 -25 -21 -78
-59 -118 -85 -40 -26 -101 -72 -135 -104 -34 -32 -80 -68 -102 -81 -91 -55
-739 -683 -831 -807 -21 -27 -63 -76 -94 -109 -31 -33 -75 -88 -98 -122 -23
-34 -64 -80 -91 -103 -27 -23 -67 -67 -89 -98 -22 -32 -61 -77 -87 -102 -25
-25 -63 -72 -82 -105 -20 -33 -69 -101 -109 -152 -39 -51 -86 -116 -103 -146
-17 -29 -58 -82 -91 -118 -33 -35 -74 -88 -92 -118 -17 -29 -56 -81 -88 -115
-32 -34 -76 -98 -100 -144 -23 -46 -65 -113 -92 -150 -28 -37 -67 -103 -89
-147 -21 -44 -59 -105 -84 -135 -26 -32 -63 -96 -88 -153 -28 -67 -60 -120
-98 -166 -67 -79 -78 -100 -114 -211 -28 -90 -44 -117 -111 -193 -28 -31 -54
-77 -75 -130 -41 -107 -58 -140 -113 -212 -36 -46 -54 -85 -81 -170 -19 -61
-47 -129 -62 -152 -16 -22 -45 -65 -65 -94 -21 -31 -50 -96 -68 -150 -21 -65
-50 -126 -90 -189 -47 -73 -62 -108 -75 -169 -25 -117 -44 -167 -81 -219 -65
-91 -87 -134 -111 -219 -25 -89 -52 -149 -103 -230 -46 -71 -68 -142 -91 -281
-22 -139 -36 -176 -96 -269 -40 -62 -53 -100 -102 -308 -12 -51 -44 -137 -76
-205 -56 -117 -86 -228 -100 -370 -9 -94 -29 -156 -80 -252 -59 -111 -80 -174
-100 -300 -24 -154 -43 -221 -97 -346 -62 -144 -84 -245 -103 -474 -16 -199
-33 -277 -95 -438 -53 -139 -66 -213 -85 -475 -8 -121 -22 -263 -30 -315 -8
-52 -23 -153 -34 -225 -11 -71 -28 -188 -36 -260 -9 -71 -18 -136 -21 -144 -2
-7 -9 -154 -14 -326 -13 -421 12 -779 70 -1015 30 -122 39 -183 65 -425 28
-267 39 -313 105 -455 56 -120 63 -144 85 -294 20 -142 38 -200 80 -267 59
-93 84 -146 110 -226 28 -86 50 -126 111 -201 23 -27 60 -95 83 -150 27 -64
59 -119 88 -153 25 -30 62 -79 82 -109 64 -100 367 -414 481 -500 25 -19 70
-57 100 -86 59 -54 94 -75 197 -117 34 -14 100 -52 145 -85 58 -42 110 -70
173 -92 91 -31 147 -59 241 -119 52 -33 140 -53 354 -81 47 -6 153 -29 235
-50 500 -130 803 -128 1313 9 63 17 180 40 262 51 223 29 264 41 379 109 30
18 93 48 140 68 113 47 166 74 251 128 38 25 100 57 136 71 90 34 119 50 185
100 31 24 99 66 150 94 52 28 117 73 144 99 28 27 77 66 110 87 33 21 87 63
120 94 33 31 81 72 106 91 136 102 518 477 616 604 33 44 80 98 103 120 23 22
58 63 77 90 20 28 69 84 108 125 40 41 82 93 95 114 13 21 49 67 79 102 35 39
78 107 116 181 73 145 80 194 44 335 -21 83 -24 115 -24 298 0 241 9 284 87
428 28 52 60 131 73 180 33 122 36 128 100 212 31 41 68 97 82 124 13 27 53
78 87 115 34 37 81 98 104 138 66 113 129 151 235 140 58 -5 237 -120 274
-176 45 -67 28 -153 -57 -301 -47 -83 -61 -123 -95 -280 -11 -46 -35 -110 -66
-166 -82 -154 -94 -213 -94 -454 0 -303 13 -328 267 -497 117 -79 152 -96 240
-124 57 -17 146 -53 198 -80 138 -72 196 -82 485 -82 228 -1 243 0 299 22 105
42 151 97 196 236 13 39 47 118 77 178 55 111 82 195 128 402 19 85 42 154 80
235 42 89 60 147 84 255 38 179 51 213 112 307 32 48 65 118 90 190 22 62 62
149 88 193 57 96 65 114 92 230 23 99 37 130 102 227 25 36 60 106 78 155 19
48 61 128 94 179 43 64 69 117 89 180 36 114 53 146 114 217 28 32 58 80 67
105 43 121 61 158 101 212 54 74 65 96 99 200 35 108 53 144 104 205 40 48 54
74 119 218 17 37 52 95 78 128 26 34 61 98 80 146 21 54 57 117 97 171 36 48
83 121 107 162 23 41 61 96 85 121 24 26 67 93 95 150 29 57 70 123 92 145 22
23 63 75 92 115 62 87 94 105 129 71 21 -22 22 -30 20 -163 -3 -165 -14 -236
-54 -337 -36 -91 -74 -245 -89 -362 -18 -146 -40 -239 -102 -435 -72 -233 -76
-268 -84 -825 -10 -671 9 -902 93 -1105 25 -60 63 -161 84 -224 25 -74 56
-141 88 -190 27 -42 70 -119 95 -173 63 -134 253 -334 397 -418 51 -30 117
-74 145 -97 76 -61 103 -72 241 -99 69 -13 171 -40 227 -60 204 -73 218 -76
386 -77 177 -1 230 8 369 64 53 21 154 52 224 68 143 35 179 50 257 113 30 25
78 57 105 73 28 16 84 60 125 99 42 39 104 91 138 115 66 47 184 166 327 330
50 57 124 140 165 185 42 45 86 97 100 116 13 19 51 64 85 100 34 36 75 90 90
120 15 30 49 93 76 140 75 131 83 177 75 416 -3 110 -11 258 -17 330 -7 79 -8
219 -4 364 10 339 -16 530 -81 591 -39 37 -145 35 -200 -3 -86 -60 -161 -126
-194 -172 -19 -27 -64 -81 -98 -120 -35 -39 -84 -107 -110 -150 -25 -43 -71
-106 -102 -140 -32 -34 -78 -92 -103 -131 -65 -101 -396 -434 -465 -469 -201
-101 -268 -10 -266 364 1 293 16 425 69 589 23 75 59 215 80 311 52 250 72
321 126 447 51 119 71 197 94 363 15 115 31 167 95 310 23 52 60 160 81 240
48 174 49 177 110 310 38 83 54 137 78 255 35 174 53 230 109 340 24 50 54
135 76 220 26 101 51 169 90 247 71 138 83 176 102 311 20 148 49 279 87 396
44 139 46 319 3 431 -16 41 -50 136 -75 212 -26 75 -58 151 -71 170 -52 71
-237 237 -320 289 -47 28 -107 71 -135 94 -73 62 -103 74 -256 105 -88 18
-166 41 -216 64 -207 93 -364 94 -566 1 -43 -19 -114 -44 -160 -56 -110 -28
-146 -45 -260 -123 -54 -36 -123 -79 -155 -95 -31 -16 -77 -50 -102 -76 -25
-26 -70 -66 -100 -88 -50 -38 -245 -228 -330 -323 -19 -21 -58 -60 -85 -85
-76 -70 -207 -217 -254 -285 -23 -33 -66 -83 -95 -111 -30 -28 -69 -73 -87
-100 -18 -26 -61 -79 -96 -117 -35 -38 -88 -110 -117 -160 -30 -50 -71 -107
-91 -126 -20 -19 -55 -62 -78 -95 -22 -33 -71 -91 -108 -130 -36 -38 -84 -97
-104 -130 -50 -80 -84 -115 -111 -115 -34 0 -37 12 -35 137 1 151 20 236 80
357 60 124 64 136 99 316 22 111 39 166 72 235 51 109 82 197 116 330 16 62
42 131 69 181 57 104 87 199 114 354 19 110 29 139 80 245 42 85 70 161 96
260 25 91 58 184 96 265 78 168 94 246 94 465 0 226 1 223 -143 416 -173 232
-340 401 -452 458 -47 24 -112 63 -145 86 -79 56 -144 87 -235 114 -41 13
-124 49 -185 81 -138 72 -180 86 -335 106 -174 22 -272 10 -337 -43 -47 -39
-173 -244 -193 -317 -51 -176 -93 -293 -125 -346 -57 -94 -74 -141 -96 -271
-25 -150 -47 -219 -105 -326 -31 -57 -51 -111 -65 -175 -47 -217 -71 -296
-120 -393 -51 -103 -50 -99 -108 -412 -15 -81 -34 -141 -67 -215 -43 -96 -94
-265 -94 -314 0 -56 -55 -226 -109 -342 -58 -124 -71 -169 -86 -307 -11 -101
-43 -222 -76 -288 -54 -105 -77 -181 -104 -328 -30 -162 -49 -224 -111 -359
-49 -108 -65 -172 -89 -350 -22 -171 -38 -233 -89 -358 -51 -123 -68 -185 -91
-332 -23 -150 -49 -237 -100 -347 -50 -108 -78 -204 -95 -333 -19 -143 -34
-168 -266 -418 -39 -43 -86 -102 -106 -133 -20 -31 -63 -83 -95 -115 -39 -40
-74 -89 -105 -149 -26 -49 -70 -117 -98 -150 -28 -33 -65 -85 -82 -115 -17
-30 -56 -82 -86 -115 -30 -32 -75 -91 -100 -129 -24 -39 -68 -100 -97 -136
-29 -36 -71 -99 -94 -140 -23 -41 -71 -104 -105 -140 -35 -36 -83 -92 -108
-125 -26 -33 -63 -76 -83 -95 -20 -19 -59 -67 -85 -105 -26 -39 -68 -94 -92
-123 -25 -29 -65 -89 -89 -133 -23 -44 -69 -110 -101 -146 -31 -36 -72 -91
-89 -122 -18 -31 -60 -85 -93 -121 -34 -36 -75 -83 -91 -105 -16 -22 -57 -69
-90 -105 -34 -36 -84 -96 -111 -135 -27 -38 -76 -101 -109 -140 -34 -38 -79
-95 -102 -125 -22 -30 -55 -68 -73 -85 -18 -16 -51 -55 -75 -85 -54 -70 -444
-460 -605 -605 -68 -60 -157 -142 -199 -181 -42 -38 -110 -90 -151 -115 -41
-24 -102 -69 -135 -99 -33 -31 -87 -76 -120 -100 -33 -24 -85 -67 -116 -96
-40 -37 -81 -61 -149 -89 -51 -22 -122 -61 -158 -87 -36 -26 -95 -60 -131 -75
-61 -26 -174 -82 -311 -155 -105 -55 -396 -84 -534 -54 -120 27 -144 41 -254
150 -113 110 -126 129 -166 253 -16 47 -49 116 -78 160 -66 101 -82 149 -112
335 -14 84 -39 198 -56 253 -81 262 -99 424 -100 861 0 391 34 725 102 984 22
86 33 161 43 300 37 494 47 551 127 737 45 107 60 180 88 426 24 215 38 274
95 387 48 96 67 155 90 280 26 138 42 188 106 315 57 116 60 125 79 263 28
206 40 242 116 356 23 36 44 91 69 186 29 107 48 156 95 240 67 120 80 155
110 300 23 109 31 129 86 220 18 30 54 118 79 195 36 111 57 157 104 230 65
98 82 136 106 235 25 102 43 140 102 217 41 53 65 100 94 180 27 72 55 127 84
165 58 75 77 115 110 228 32 112 29 107 98 193 37 46 66 97 88 155 19 48 56
120 83 162 27 41 68 116 91 165 23 50 66 119 95 155 29 36 72 104 96 151 24
48 66 113 95 145 31 36 71 99 100 161 27 56 69 128 92 160 24 32 60 85 81 118
21 33 71 94 111 135 40 41 86 95 103 120 16 25 51 65 77 90 26 25 63 70 83
100 20 30 59 80 87 110 29 30 77 93 108 140 70 109 436 478 546 552 40 28 105
79 143 115 39 35 91 75 117 88 25 12 77 46 115 74 77 56 108 66 171 56 56 -8
106 -41 127 -85 47 -96 49 -334 3 -500 -70 -260 -94 -378 -104 -515 -12 -169
-35 -255 -101 -384 -39 -74 -57 -125 -79 -226 -37 -161 -51 -202 -99 -279 -54
-88 -60 -103 -92 -266 -31 -158 -52 -220 -98 -296 -69 -115 -78 -257 -23 -409
76 -213 90 -266 111 -410 34 -246 61 -320 160 -455 81 -109 191 -192 284 -214
61 -15 229 -8 292 12 79 25 299 170 385 254 36 35 88 82 116 105 72 60 211
250 272 370 30 60 72 126 104 162 30 33 71 95 91 138 21 43 62 111 93 151 60
80 71 104 108 221 15 45 46 111 75 155 70 107 85 139 120 257 17 56 49 137 71
178 53 97 84 189 99 288 6 43 16 107 21 143 6 36 32 120 59 187 75 185 99 324
124 721 18 286 10 555 -25 812 -22 163 -40 221 -98 335 -32 61 -66 143 -75
181 -25 99 -49 148 -110 223 -29 36 -71 93 -93 126 -73 108 -297 319 -425 401
-39 25 -98 68 -130 95 -73 61 -99 74 -213 111 -49 16 -119 46 -155 67 -82 48
-149 73 -302 111 -67 17 -170 51 -230 76 -134 55 -203 70 -393 83 -232 16
-334 18 -550 11z M21665 18075 c-82 -7 -220 -20 -306 -29 -170 -17 -444 -30
-934 -46 -622 -19 -867 -43 -1260 -120 -194 -38 -262 -48 -619 -90 -153 -18
-187 -26 -345 -79 -157 -53 -197 -62 -371 -86 -240 -32 -306 -47 -439 -97
-140 -52 -188 -64 -365 -88 -83 -12 -199 -32 -258 -46 -70 -16 -137 -24 -195
-24 -87 0 -90 -1 -163 -44 -43 -26 -110 -54 -155 -67 -149 -40 -187 -72 -233
-201 -59 -162 -33 -292 79 -398 124 -118 173 -140 334 -147 145 -7 234 11 411
80 79 32 210 73 304 96 91 22 221 61 289 86 160 59 204 70 396 95 217 28 297
45 455 95 189 60 347 92 556 110 212 18 277 28 404 60 373 93 610 114 1515
136 530 13 796 13 1065 -1 386 -20 601 -11 679 30 36 19 206 194 232 240 10
17 14 58 14 135 -1 178 -42 243 -210 326 -154 77 -226 89 -495 88 -129 -1
-302 -7 -385 -14z M36470 17239 c-190 -9 -323 -37 -457 -93 -60 -25 -163 -64
-231 -86 -83 -26 -145 -54 -190 -83 -85 -56 -111 -69 -197 -97 -96 -31 -133
-51 -191 -102 -27 -25 -77 -63 -111 -86 -34 -23 -88 -66 -120 -95 -32 -29 -86
-72 -120 -96 -108 -75 -526 -523 -589 -632 -21 -35 -63 -92 -94 -127 -31 -35
-79 -102 -105 -150 -26 -48 -61 -106 -77 -129 -51 -76 -76 -136 -106 -259 -19
-76 -49 -163 -82 -232 -74 -161 -84 -228 -84 -572 0 -329 7 -372 89 -535 39
-77 61 -138 75 -203 27 -124 47 -174 107 -262 27 -41 65 -103 83 -137 18 -35
63 -96 99 -136 37 -40 77 -91 91 -112 13 -22 47 -65 75 -95 28 -30 72 -86 97
-125 25 -38 67 -90 93 -115 26 -25 72 -83 102 -130 30 -47 87 -119 127 -160
148 -157 216 -243 261 -336 24 -51 68 -129 98 -175 54 -83 76 -135 116 -275
13 -43 41 -102 72 -149 72 -111 177 -338 194 -423 16 -78 13 -108 -30 -265
-13 -51 -40 -165 -59 -253 -34 -160 -58 -224 -116 -309 -42 -61 -66 -113 -96
-206 -30 -93 -58 -153 -109 -234 -20 -30 -49 -98 -66 -152 -37 -116 -57 -157
-114 -238 -23 -33 -55 -85 -71 -114 -16 -30 -52 -80 -80 -110 -28 -31 -77 -92
-108 -136 -147 -206 -432 -493 -596 -601 -30 -20 -84 -65 -120 -99 -36 -35
-92 -80 -125 -101 -33 -20 -85 -59 -115 -85 -75 -64 -120 -84 -241 -110 -166
-34 -240 -32 -319 12 -124 67 -139 158 -56 338 24 53 52 121 61 151 27 85 58
139 124 218 33 40 68 87 77 105 14 27 116 137 241 260 18 18 75 73 125 123 51
50 109 101 128 114 19 13 65 52 102 86 37 35 102 86 145 115 43 29 107 76 143
105 36 28 92 65 125 82 33 16 97 57 141 91 53 40 108 71 164 92 47 17 108 49
135 71 118 91 142 110 179 140 52 42 79 107 111 268 72 359 -46 583 -266 504
-24 -8 -84 -24 -134 -35 -115 -26 -157 -45 -225 -103 -30 -26 -91 -64 -135
-85 -44 -21 -111 -64 -149 -96 -38 -31 -100 -72 -136 -90 -37 -19 -85 -53
-106 -77 -44 -47 -65 -68 -225 -218 -61 -58 -128 -123 -148 -144 -38 -42 -220
-223 -411 -408 -63 -61 -135 -132 -160 -157 -25 -25 -64 -63 -88 -86 -181
-169 -461 -464 -511 -539 -19 -26 -56 -70 -82 -97 -27 -27 -75 -84 -106 -127
-31 -42 -78 -100 -104 -129 -26 -29 -65 -91 -88 -138 -27 -57 -61 -107 -102
-151 -41 -45 -72 -90 -96 -142 -19 -43 -59 -126 -90 -187 -55 -109 -55 -109
-50 -290 5 -205 8 -219 77 -335 27 -47 57 -107 66 -135 31 -95 63 -140 181
-261 107 -110 126 -125 203 -161 47 -22 113 -60 148 -86 77 -56 138 -80 276
-106 59 -11 162 -39 229 -63 119 -41 125 -42 277 -46 194 -5 320 9 520 60 85
21 214 47 285 58 192 28 266 47 332 87 98 59 126 71 224 94 108 25 123 31 239
109 47 31 116 70 154 85 48 20 92 49 140 92 39 36 105 82 147 105 42 22 98 58
125 79 27 22 90 70 139 108 50 38 104 83 120 101 17 18 57 53 90 77 33 24 134
122 225 218 91 95 180 186 198 200 18 15 54 57 80 94 25 36 74 100 108 143 34
42 81 105 105 140 23 34 63 86 87 113 25 28 62 86 82 130 21 44 61 112 90 150
29 39 75 117 102 175 27 58 66 127 87 155 56 73 70 106 108 245 20 73 56 172
88 240 53 111 72 176 111 382 8 42 36 146 63 230 58 184 75 299 76 508 0 222
-9 234 -199 282 -171 43 -319 120 -422 223 -72 71 -124 136 -124 157 0 16 50
52 117 85 156 75 219 140 283 296 44 106 71 137 119 137 26 0 44 -7 58 -22 47
-53 143 -218 162 -278 11 -36 34 -111 51 -167 48 -153 101 -204 233 -219 96
-11 170 12 332 106 28 16 84 37 125 45 118 25 159 44 220 100 31 29 86 69 121
90 35 20 93 61 129 89 36 29 103 78 150 108 99 65 297 261 356 353 21 33 64
95 96 138 66 89 88 151 88 246 0 117 -49 159 -195 168 -96 7 -141 -5 -310 -77
-118 -50 -145 -57 -360 -86 -164 -22 -189 -29 -272 -80 -87 -54 -123 -67 -285
-104 -142 -32 -165 -42 -261 -112 -112 -83 -273 -121 -348 -83 -54 28 -161
232 -209 400 -38 129 -47 149 -110 231 -27 35 -58 88 -69 119 -34 90 -58 132
-112 191 -28 31 -66 90 -88 137 -21 45 -62 109 -90 142 -28 33 -71 98 -95 145
-25 47 -67 111 -96 144 -28 32 -67 90 -86 130 -20 39 -60 103 -88 141 -62 82
-74 105 -120 207 -19 43 -49 98 -66 123 -64 93 -90 222 -90 445 0 203 25 310
93 411 24 35 67 109 96 165 61 121 239 318 330 368 104 56 224 43 258 -29 14
-30 14 -43 -2 -146 -9 -63 -19 -182 -22 -265 -7 -179 6 -233 64 -285 45 -39
76 -36 170 17 98 55 408 339 467 428 88 134 109 165 149 212 28 32 57 85 81
145 21 52 60 132 86 179 56 97 74 158 95 318 28 209 13 518 -30 647 -22 64
-44 93 -169 221 -90 92 -110 107 -190 144 -49 22 -121 60 -160 84 -139 86
-308 112 -636 95z M4250 16519 c-183 -27 -245 -49 -337 -117 -43 -32 -104 -75
-137 -96 -104 -66 -306 -278 -355 -373 -23 -44 -66 -109 -96 -143 -30 -34 -73
-99 -96 -144 -23 -44 -56 -101 -74 -126 -54 -75 -85 -146 -116 -268 -19 -77
-48 -155 -83 -227 -79 -160 -83 -177 -117 -505 -25 -245 -21 -392 16 -612 26
-160 43 -202 111 -286 23 -29 67 -96 96 -149 57 -103 85 -131 189 -183 31 -16
94 -55 140 -86 118 -81 136 -85 405 -91 364 -9 484 9 598 89 32 22 93 56 136
74 117 49 136 61 199 118 32 30 82 69 112 88 51 33 231 208 280 273 13 17 52
61 87 99 65 69 77 91 127 224 15 40 46 99 70 131 59 81 71 105 96 205 15 62
36 111 72 169 77 127 86 148 96 243 33 291 39 602 16 834 -17 170 -27 201 -86
271 -23 28 -59 77 -81 111 -80 124 -315 344 -430 404 -159 82 -552 117 -838
73z M3286 11960 c-65 -11 -143 -43 -208 -88 -24 -16 -93 -54 -153 -85 -120
-61 -133 -73 -280 -247 -114 -136 -129 -162 -155 -277 -13 -55 -43 -133 -79
-208 -72 -148 -85 -189 -111 -368 -21 -141 -54 -245 -117 -370 -13 -26 -37
-107 -54 -180 -41 -181 -64 -257 -110 -360 -45 -101 -61 -164 -90 -350 -25
-164 -32 -190 -80 -303 -52 -121 -72 -191 -113 -383 -23 -105 -48 -191 -72
-244 -63 -142 -82 -209 -99 -337 -27 -203 -52 -324 -80 -392 -62 -145 -95
-259 -120 -408 -33 -198 -48 -259 -101 -401 -55 -147 -60 -169 -84 -391 -26
-234 -44 -331 -80 -443 -43 -132 -86 -354 -109 -565 -22 -203 -40 -306 -106
-600 -53 -238 -63 -331 -76 -717 -12 -368 1 -779 26 -862 20 -63 175 -370 213
-421 68 -89 161 -186 234 -243 136 -106 154 -115 280 -142 63 -13 151 -36 194
-50 44 -14 136 -34 205 -44 164 -25 229 -18 433 45 44 14 130 36 193 49 136
29 202 57 269 116 27 24 72 61 100 81 28 21 64 56 80 80 16 23 59 78 97 122
50 60 75 101 98 161 39 101 56 134 113 218 25 38 53 94 62 125 38 140 58 186
103 245 61 79 65 87 107 209 20 57 59 143 86 191 55 95 77 161 109 332 16 85
31 129 67 200 51 99 62 166 47 301 -8 82 -29 107 -75 94 -52 -15 -142 -71
-200 -125 -30 -28 -80 -70 -110 -94 -30 -23 -80 -75 -110 -114 -87 -112 -163
-151 -218 -110 -44 32 -48 73 -23 235 11 78 28 208 37 288 19 183 63 392 119
568 49 158 49 156 75 409 29 271 44 349 99 497 63 167 67 185 81 336 20 213
42 311 117 500 52 132 68 212 83 415 13 183 36 290 93 430 46 112 67 201 87
360 18 145 36 209 94 323 65 128 82 190 96 348 17 190 42 291 104 423 52 108
58 128 86 296 35 203 56 276 112 389 60 119 69 176 75 461 7 343 -3 404 -86
505 -21 25 -56 73 -79 107 -23 34 -59 75 -79 90 -21 15 -71 60 -113 99 -86 82
-103 92 -220 128 -47 14 -116 44 -155 66 -117 69 -170 83 -330 86 -77 1 -166
-1 -199 -6z M26720 5279 c-58 -5 -269 -14 -470 -20 -201 -7 -421 -15 -490 -19
-222 -13 -702 -30 -1260 -45 -593 -17 -729 -28 -910 -76 -102 -27 -216 -49
-470 -94 -41 -7 -158 -16 -260 -19 -328 -12 -482 -30 -680 -82 -209 -54 -461
-85 -840 -104 -245 -12 -308 -23 -522 -88 -204 -63 -272 -76 -533 -102 -247
-25 -224 -20 -400 -77 -184 -59 -331 -88 -545 -107 -239 -22 -274 -29 -452
-86 -205 -65 -294 -87 -403 -100 -188 -22 -293 -43 -391 -81 -168 -63 -308
-92 -575 -119 -122 -12 -212 -35 -324 -83 -103 -44 -209 -71 -370 -97 -157
-25 -207 -39 -350 -95 -113 -44 -215 -68 -439 -104 -104 -17 -147 -29 -225
-65 -132 -60 -241 -93 -390 -117 -157 -25 -217 -42 -302 -85 -91 -45 -184 -69
-364 -93 -159 -21 -196 -31 -291 -79 -90 -45 -189 -78 -294 -96 -156 -28 -209
-45 -334 -103 -106 -49 -141 -60 -307 -93 -179 -36 -192 -40 -301 -99 -92 -48
-144 -68 -265 -101 -103 -27 -187 -57 -264 -94 -96 -47 -137 -60 -259 -84
-134 -27 -155 -35 -280 -99 -104 -53 -164 -77 -260 -102 -88 -23 -145 -44
-192 -72 -87 -52 -144 -74 -296 -110 -139 -33 -178 -48 -277 -108 -38 -22
-111 -54 -164 -71 -53 -17 -151 -58 -217 -91 -79 -39 -152 -67 -210 -80 -161
-37 -242 -67 -320 -118 -41 -28 -112 -64 -157 -81 -45 -17 -95 -36 -111 -42
-16 -7 -63 -34 -105 -62 -43 -28 -126 -68 -189 -92 -77 -29 -136 -59 -185 -95
-39 -28 -119 -75 -178 -104 -59 -28 -139 -76 -179 -105 -42 -31 -110 -69 -166
-91 -117 -47 -147 -68 -173 -122 -62 -127 28 -164 249 -103 114 32 183 45 440
86 146 24 228 43 327 76 148 50 275 75 508 99 180 18 340 51 471 96 120 41
236 67 374 85 139 18 297 55 365 84 89 38 235 69 480 100 335 43 403 55 571
105 95 29 231 59 384 85 143 24 299 58 396 86 246 70 331 85 709 119 91 8 267
48 380 85 121 40 232 65 400 89 250 37 272 42 419 86 210 63 305 81 550 105
221 21 309 38 653 130 62 16 199 41 305 55 216 29 314 50 468 100 140 45 240
63 450 81 245 21 382 48 580 114 81 27 211 51 350 65 160 16 390 59 560 105
247 66 252 67 510 90 299 27 383 41 590 101 163 47 240 62 605 119 133 21 206
38 410 95 91 25 342 57 598 75 151 11 290 38 510 100 144 40 252 59 467 80
181 18 336 47 564 105 234 59 290 68 613 90 266 18 418 43 590 94 138 42 258
63 448 81 161 15 402 55 544 90 303 76 339 81 686 100 339 18 583 53 779 111
124 37 199 49 411 64 286 21 484 43 580 65 421 97 595 120 995 135 368 13 597
43 1000 130 85 18 250 45 365 60 116 14 246 32 289 40 153 27 154 77 2 152
-200 100 -359 140 -690 173 -135 14 -376 62 -476 95 -182 61 -397 82 -955 95
-705 16 -1613 59 -1765 84 -8 1 -62 -1 -120 -5z"/>
</g>
</svg>
