<?xml version="1.0" standalone="no"?>
<svg version="1.0" xmlns="http://www.w3.org/2000/svg"
 width="5289" height="3351" viewBox="0 0 5289.000000 3351.000000"
 preserveAspectRatio="xMidYMid meet">
<g transform="translate(0.000000,3351.000000) scale(0.100000,-0.100000)"
fill="#f6197e" stroke="none">
<path d="M25100 32499 c-188 -22 -441 -135 -559 -247 -10 -9 -35 -33 -57 -53
-252 -231 -381 -548 -353 -872 13 -159 46 -266 183 -606 202 -497 200 -697
-13 -1321 -38 -113 -160 -470 -271 -795 -111 -324 -267 -779 -345 -1011 -213
-623 -306 -793 -485 -884 -278 -142 -530 -45 -1535 593 -624 396 -818 534
-968 691 -162 170 -235 309 -341 653 -133 433 -319 673 -619 800 -364 154
-796 17 -1018 -322 -108 -164 -134 -256 -134 -470 0 -318 118 -533 443 -815
35 -30 87 -75 115 -100 375 -323 496 -535 820 -1435 160 -443 159 -441 342
-900 90 -225 225 -579 300 -785 204 -557 331 -868 365 -890 4 -3 15 -21 25
-40 10 -18 24 -40 31 -48 8 -7 14 -17 14 -21 0 -18 148 -160 200 -193 257
-163 465 -138 1087 126 845 358 1735 634 2468 766 127 23 344 64 483 91 576
111 742 129 1402 149 1385 41 1764 23 2460 -120 534 -109 739 -83 949 120 203
195 298 437 461 1170 72 321 115 490 245 966 157 572 172 630 250 954 227 945
365 1339 556 1584 88 112 122 149 336 366 122 124 232 239 245 255 12 17 28
35 34 40 52 47 179 277 209 379 94 314 -37 690 -315 906 -25 19 -47 37 -50 40
-204 218 -792 215 -1044 -5 -16 -14 -32 -25 -35 -25 -3 0 -28 -22 -56 -48
-228 -221 -307 -409 -355 -847 -30 -273 -59 -400 -128 -555 -20 -48 -150 -248
-180 -278 -9 -10 -39 -44 -66 -76 -27 -32 -92 -99 -145 -149 -52 -51 -113
-110 -135 -133 -23 -22 -169 -153 -326 -289 -391 -341 -556 -488 -615 -549
-28 -28 -82 -81 -120 -117 -110 -104 -206 -207 -273 -292 -35 -44 -70 -86 -78
-95 -13 -13 -99 -141 -213 -317 -54 -85 -142 -194 -183 -229 -183 -157 -450
-78 -669 199 -24 31 -52 66 -62 78 -10 12 -35 49 -55 82 -19 33 -39 62 -42 65
-20 14 -160 288 -323 630 -101 212 -298 615 -437 895 -514 1040 -534 1130
-380 1744 121 484 112 728 -36 1016 -203 395 -601 622 -1004 574z m360 -3979
c148 -76 432 -561 620 -1060 80 -212 155 -369 267 -561 352 -601 314 -847
-202 -1309 -464 -416 -750 -420 -1290 -21 -421 311 -456 547 -198 1336 36 110
96 297 133 415 37 118 93 288 124 377 31 89 74 233 97 320 68 265 102 351 174
431 87 96 179 121 275 72z m4387 -915 c37 -11 62 -28 95 -63 104 -111 100
-194 -33 -637 -110 -365 -140 -457 -209 -635 -37 -97 -89 -245 -114 -329 -129
-424 -299 -582 -596 -556 -925 82 -1156 751 -425 1233 188 124 250 177 545
467 491 484 600 561 737 520z m-8426 -1291 c126 -37 275 -125 767 -456 431
-290 540 -385 611 -531 139 -287 -111 -630 -574 -790 -437 -150 -582 -28 -897
753 -279 693 -302 826 -168 960 77 77 153 96 261 64z M43906 28685 c-808 -132
-1703 -811 -2612 -1981 -814 -1048 -1618 -2360 -2150 -3505 -542 -1169 -771
-1719 -1174 -2819 -254 -693 -306 -854 -505 -1575 -64 -231 -152 -548 -195
-705 -119 -427 -135 -496 -210 -865 -38 -187 -89 -432 -114 -545 -57 -262 -87
-425 -131 -730 -105 -714 -244 -1129 -514 -1537 -645 -975 -1842 -2228 -2807
-2939 -876 -644 -1720 -978 -2144 -846 -265 83 -461 264 -614 569 -175 347
-228 972 -136 1599 63 429 362 1487 564 1997 365 920 1135 2100 1668 2559 34
29 70 61 80 71 11 10 47 36 81 57 34 22 68 44 75 50 74 64 265 98 345 62 410
-181 -218 -1428 -1262 -2507 -383 -396 -413 -429 -572 -622 -458 -555 -597
-1291 -299 -1580 534 -515 2450 591 3628 2096 512 653 991 1714 1093 2421 103
710 -195 1515 -755 2039 -21 20 -44 42 -50 49 -6 7 -51 45 -101 84 -49 40 -97
79 -105 87 -174 168 -772 428 -1175 511 -1496 308 -3465 -935 -4697 -2965
-742 -1224 -1179 -2284 -1457 -3535 -160 -720 -173 -1767 -31 -2332 241 -953
663 -1714 1214 -2186 49 -42 103 -89 120 -105 385 -357 1319 -684 2007 -704
1012 -29 2331 519 3399 1412 576 482 1335 1285 1565 1655 116 188 158 291 300
740 111 348 262 464 410 315 113 -113 150 -265 181 -740 29 -466 76 -686 209
-985 75 -171 261 -479 337 -560 13 -13 45 -51 71 -85 74 -93 263 -280 357
-353 47 -37 90 -72 95 -78 115 -136 619 -353 925 -399 1178 -176 2201 451
3650 2240 202 250 366 444 635 755 481 555 601 714 945 1250 240 373 316 486
605 899 590 845 725 1085 766 1370 74 515 -438 1035 -854 866 -274 -112 -415
-275 -1182 -1370 -343 -490 -483 -685 -689 -955 -1178 -1551 -1630 -2036
-2141 -2293 -429 -215 -777 -47 -905 440 -85 325 -65 1142 40 1570 141 577
411 1050 1839 3216 355 539 474 727 723 1137 102 168 302 496 445 730 1157
1891 1956 3489 2463 4925 316 896 423 1304 564 2150 76 461 72 774 -14 1102
-50 193 -197 532 -260 600 -8 10 -42 56 -75 103 -342 486 -939 761 -1469 675z
m-27 -3050 c129 -66 98 -281 -126 -880 -41 -110 -109 -299 -150 -420 -92 -272
-162 -445 -316 -785 -65 -146 -161 -359 -212 -475 -230 -522 -732 -1533 -1058
-2130 -77 -143 -428 -734 -530 -895 -321 -507 -497 -672 -609 -571 -71 63 -53
196 77 586 45 138 114 347 153 465 81 249 223 623 386 1018 131 317 157 375
403 902 99 212 222 475 273 585 127 275 408 832 533 1055 405 726 713 1235
826 1365 151 173 258 228 350 180z M14574 24249 c-858 -58 -1725 -492 -2609
-1306 -736 -677 -1744 -1899 -2337 -2833 -878 -1385 -1738 -3135 -2226 -4535
-254 -728 -242 -692 -642 -2020 -151 -502 -205 -718 -285 -1130 -25 -132 -73
-361 -105 -510 -86 -396 -195 -1154 -264 -1840 -59 -580 -50 -1167 25 -1705
175 -1258 389 -1993 780 -2680 129 -227 378 -587 468 -676 16 -16 48 -51 71
-79 67 -79 218 -232 305 -308 44 -38 87 -77 95 -86 239 -266 1043 -679 1586
-815 957 -238 1426 -240 2394 -10 1177 280 2434 1147 3429 2364 445 543 534
755 566 1342 25 472 76 687 245 1036 276 569 672 855 897 649 132 -121 142
-322 36 -687 -130 -448 -151 -541 -160 -715 -10 -196 47 -419 139 -540 198
-262 477 -445 840 -549 685 -197 1102 9 1370 679 22 55 111 314 198 575 178
535 245 708 499 1288 290 661 457 1007 778 1617 55 105 195 372 311 595 397
768 705 1298 875 1510 6 9 30 38 51 65 199 251 381 316 443 157 45 -117 23
-291 -118 -932 -180 -823 -228 -1585 -144 -2289 111 -927 620 -1700 1345
-2045 1087 -516 2148 -161 3177 1064 540 643 621 878 610 1769 -9 688 -47 847
-227 940 -95 49 -267 17 -376 -72 -94 -76 -160 -137 -223 -203 -126 -134 -154
-166 -236 -264 -560 -672 -928 -778 -1050 -304 -89 344 168 1474 705 3099 98
297 232 704 298 905 66 201 171 516 234 700 345 1013 379 1605 115 1998 -14
21 -41 63 -61 94 -91 146 -281 340 -431 441 -33 22 -73 51 -89 64 -16 14 -97
58 -180 98 -1088 533 -1984 108 -3411 -1620 -55 -66 -120 -143 -145 -171 -25
-28 -72 -81 -105 -119 -262 -297 -450 -390 -520 -256 -63 123 4 434 240 1106
206 587 630 1857 665 1990 144 562 14 988 -430 1409 -35 33 -76 72 -90 86 -14
14 -63 55 -110 90 -47 35 -87 67 -90 71 -24 33 -347 217 -500 285 -849 377
-1210 182 -1587 -861 -140 -387 -467 -1413 -589 -1845 -98 -346 -168 -583
-324 -1100 -71 -234 -161 -537 -200 -675 -39 -137 -131 -455 -205 -705 -173
-587 -186 -635 -299 -1075 -410 -1600 -493 -1805 -1022 -2517 -118 -159 -335
-454 -481 -656 -338 -466 -497 -679 -764 -1022 -117 -151 -312 -408 -433 -570
-1040 -1395 -1833 -2242 -2746 -2934 -872 -661 -1549 -919 -1994 -760 -60 22
-192 88 -206 103 -3 4 -23 19 -45 35 -279 205 -487 612 -630 1236 -182 792
-192 1385 -40 2400 24 162 56 387 70 500 59 477 83 612 175 1005 33 138 82
355 109 483 100 459 178 726 561 1923 158 493 616 1664 866 2214 683 1506
1482 2890 2148 3720 262 327 585 708 652 770 18 17 63 64 101 105 284 312 654
586 866 641 367 95 508 -201 398 -836 -102 -590 -131 -695 -468 -1690 -274
-808 -288 -1099 -81 -1770 289 -940 1068 -1000 1763 -135 37 47 71 87 75 90
13 10 117 156 207 290 1086 1629 1509 3608 1042 4878 -149 408 -457 838 -789
1105 -30 24 -70 58 -88 75 -105 98 -460 309 -696 413 -678 300 -1318 422
-1972 378z M28825 23885 c-88 -7 -297 -25 -465 -39 -352 -29 -542 -40 -1095
-61 -923 -35 -1144 -55 -1785 -160 -184 -31 -454 -73 -600 -95 -314 -48 -449
-74 -750 -145 -124 -29 -346 -79 -495 -110 -148 -32 -369 -82 -490 -112 -308
-76 -446 -105 -710 -153 -563 -100 -755 -172 -929 -345 -364 -360 -17 -864
554 -806 161 17 251 40 805 205 383 115 574 164 905 231 151 31 397 85 545
120 344 81 415 94 796 150 173 25 400 62 504 81 839 154 1420 189 3045 182
818 -3 880 -2 954 15 484 112 678 527 381 819 -208 206 -554 272 -1170 223z
M48515 22740 c-1443 -121 -3093 -1528 -3520 -3000 -184 -637 -140 -1184 149
-1840 147 -334 331 -608 850 -1265 498 -630 638 -839 866 -1300 461 -934 448
-1165 -138 -2455 -305 -673 -618 -1126 -1072 -1554 -41 -39 -102 -98 -135
-131 -602 -591 -1200 -787 -1367 -448 -207 422 473 1267 1667 2071 394 265
524 373 639 527 359 482 85 968 -449 798 -422 -135 -778 -411 -1775 -1380
-1685 -1638 -2193 -2425 -2007 -3115 44 -165 194 -465 261 -522 6 -6 24 -27
38 -46 34 -46 116 -130 181 -187 29 -24 63 -55 77 -67 14 -13 59 -45 100 -72
41 -27 80 -54 87 -60 96 -91 558 -256 858 -308 633 -109 1660 113 2405 519
1394 760 2553 2140 3038 3615 214 651 282 1078 212 1330 -45 162 -108 251
-340 489 -232 238 -281 383 -192 564 126 255 405 292 618 83 6 -6 30 -27 54
-46 24 -19 48 -40 54 -46 117 -113 289 -192 436 -201 387 -23 1070 369 1542
886 207 226 298 484 220 626 -129 236 -482 200 -1557 -160 -831 -278 -938
-234 -1375 570 -128 235 -291 505 -543 897 -496 774 -622 1019 -692 1353 -97
460 98 1019 440 1260 219 154 351 104 513 -194 181 -335 414 -329 763 19 589
587 840 1467 580 2032 -234 511 -828 813 -1486 758z M5750 21824 c-177 -21
-343 -63 -470 -118 -897 -389 -1714 -2018 -1581 -3152 46 -389 194 -695 451
-928 24 -23 53 -51 65 -62 323 -334 1091 -387 1643 -114 701 347 1242 1032
1544 1953 110 336 135 1022 49 1359 -109 426 -555 875 -995 1003 -174 50 -530
80 -706 59z M4405 15673 c-386 -48 -816 -339 -1033 -698 -20 -33 -39 -62 -42
-65 -71 -53 -219 -445 -415 -1095 -85 -280 -191 -629 -235 -775 -45 -146 -120
-407 -166 -580 -47 -173 -129 -463 -181 -645 -52 -181 -133 -463 -180 -625
-46 -162 -124 -455 -173 -650 -48 -195 -123 -485 -165 -645 -135 -509 -262
-1033 -305 -1260 -23 -121 -84 -434 -136 -695 -51 -261 -122 -650 -158 -865
-36 -214 -86 -507 -110 -650 -174 -1009 -147 -1884 73 -2359 531 -1149 2192
-1263 2927 -200 27 38 51 71 55 74 96 71 661 1261 772 1630 154 507 93 641
-298 650 -201 5 -212 6 -255 30 -176 99 -184 356 -30 1070 32 151 86 425 120
609 33 183 83 433 111 555 27 121 83 372 124 556 41 184 103 457 139 605 36
149 99 439 140 645 82 408 196 881 336 1385 49 178 121 451 160 607 39 155
107 409 150 563 261 931 303 1114 316 1385 22 434 -159 837 -491 1091 -16 13
-32 26 -35 30 -6 8 -172 117 -224 147 -221 129 -559 204 -791 175z M34780
6799 c-102 -4 -351 -17 -555 -28 -482 -27 -774 -38 -1245 -51 -1005 -26 -1135
-37 -1880 -164 -319 -54 -421 -67 -830 -106 -350 -33 -482 -51 -873 -115 -327
-55 -502 -77 -847 -110 -403 -38 -528 -58 -1015 -160 -121 -25 -359 -71 -530
-101 -170 -30 -445 -84 -610 -119 -303 -65 -457 -94 -840 -161 -115 -20 -317
-61 -450 -90 -132 -30 -388 -88 -570 -129 -181 -40 -447 -101 -590 -134 -143
-33 -384 -85 -535 -117 -151 -31 -354 -76 -450 -99 -396 -98 -1767 -461 -2125
-563 -254 -73 -824 -229 -1365 -376 -595 -160 -1478 -443 -2430 -778 -179 -63
-426 -150 -550 -193 -124 -43 -349 -125 -500 -182 -151 -58 -446 -169 -655
-248 -449 -170 -1600 -627 -1800 -715 -278 -123 -1027 -502 -1045 -530 -3 -4
-16 -13 -30 -20 -282 -143 -474 -376 -382 -462 95 -89 277 -77 947 67 138 30
388 79 555 109 453 82 414 74 1580 341 420 96 513 115 930 189 168 30 640 127
1050 215 885 190 911 195 1335 265 354 59 446 77 795 155 257 57 1074 230
1260 267 69 13 276 49 460 80 184 30 454 80 600 110 146 30 463 95 705 144
242 49 537 109 655 134 118 25 328 63 465 86 343 56 535 92 834 155 141 30
382 77 536 105 154 28 435 82 625 120 376 75 481 94 790 140 296 44 512 82
806 144 739 156 1527 302 1888 352 337 45 554 82 895 149 152 30 427 79 611
110 184 30 475 82 645 115 395 76 495 92 850 135 350 43 552 74 819 125 290
56 449 84 732 129 138 22 410 69 605 105 420 77 555 96 959 136 384 38 495 52
750 96 113 19 297 51 409 70 112 19 368 55 570 79 201 25 557 77 791 115 555
90 669 104 1145 140 1311 99 1931 278 1786 517 -67 108 -235 163 -876 287
-762 147 -840 155 -1660 181 -656 20 -914 31 -1400 62 -450 28 -1366 40 -1745
22z"/>
</g>
</svg>
